# xmcd CD database file
#
# Track frame offsets:
#	150
#	12750
#	24072
#	38587
#	51337
#	62925
#	76575
#	90112
#	101625
#	118575
#	135937
#	147300
#	161850
#
# Disc length: 2356 seconds
#
# Revision: 4
# Processed by: cddbd v1.5.2PL0 Copyright (c) Steve Scherf et al.
# Submitted via: CDex 1.70beta2
#
DISCID=9409320d
DTITLE=The Grascals - The Grascals
DYEAR=2005
DGENRE=Bluegrass
TTITLE0=Leavin's Heavy On My Mind
TTITLE1=Mourning Dove
TTITLE2=Me And John And Paul
TTITLE3=Bevans Lake Crossing
TTITLE4=Some Things I Want To Sing About
TTITLE5=Teardrops In My Eyes
TTITLE6=Where I Come From
TTITLE7=My Saro Jane
TTITLE8=Where Corn Don't Grow
TTITLE9=Sally Goodin
TTITLE10=Lonely Street
TTITLE11=Viva Las Vegas
TTITLE12=Sweet By And By
EXTD=YEAR: 2005
EXTT0=
EXTT1=
EXTT2=
EXTT3=
EXTT4=
EXTT5=
EXTT6=
EXTT7=
EXTT8=
EXTT9=
EXTT10=
EXTT11=
EXTT12=
PLAYORDER=
